<svg xmlns="http://www.w3.org/2000/svg" width="1280" height="920" viewBox="0 0 1280 920" role="img" aria-labelledby="title desc">
  <title id="title">Future Invest institutional stack</title>
  <desc id="desc">A cyberpunk institutional stack with parallel research rails, neon connectors, and lean/full exits.</desc>
  <defs>
    <linearGradient id="stack-bg" x1="44" y1="34" x2="1232" y2="886" gradientUnits="userSpaceOnUse">
      <stop offset="0%" stop-color="#091022"/>
      <stop offset="100%" stop-color="#04060d"/>
    </linearGradient>
    <linearGradient id="stack-panel" x1="0%" y1="0%" x2="100%" y2="100%">
      <stop offset="0%" stop-color="#101835"/>
      <stop offset="100%" stop-color="#0a1022"/>
    </linearGradient>
    <linearGradient id="stack-line" x1="0%" y1="0%" x2="100%" y2="0%">
      <stop offset="0%" stop-color="#ff57c5"/>
      <stop offset="55%" stop-color="#8a5cff"/>
      <stop offset="100%" stop-color="#4ef2ff"/>
    </linearGradient>
    <filter id="stack-glow" x="-20%" y="-20%" width="140%" height="140%">
      <feGaussianBlur stdDeviation="7" result="blur"/>
      <feMerge>
        <feMergeNode in="blur"/>
        <feMergeNode in="SourceGraphic"/>
      </feMerge>
    </filter>
    <style>
      .title { font: 700 40px Arial, Helvetica, sans-serif; fill: #eef6ff; }
      .subtitle { font: 400 18px Arial, Helvetica, sans-serif; fill: #91a2d4; }
      .kicker { font: 700 14px "Courier New", monospace; fill: #4ef2ff; letter-spacing: 2.2px; }
      .heading { font: 700 27px Arial, Helvetica, sans-serif; fill: #f4f7ff; }
      .body { font: 400 17px Arial, Helvetica, sans-serif; fill: #c6d4ff; }
      .small { font: 400 15px Arial, Helvetica, sans-serif; fill: #91a2d4; }
      .panel { fill: url(#stack-panel); stroke: #2a4f97; stroke-width: 2; }
      .chip { fill: #0c1430; stroke: #355fc1; stroke-width: 2; }
      .line { fill: none; stroke: url(#stack-line); stroke-width: 5; stroke-linecap: round; stroke-linejoin: round; filter: url(#stack-glow); }
      .guide { fill: none; stroke: #1a2b57; stroke-width: 2; stroke-dasharray: 10 10; }
      .scan { fill: none; stroke: #4ef2ff; stroke-width: 2; opacity: 0.22; }
    </style>
  </defs>

  <rect width="1280" height="920" fill="#04060d"/>
  <rect x="24" y="24" width="1232" height="872" rx="34" fill="url(#stack-bg)"/>
  <path d="M66 54H1160L1230 124V792L1160 862H120L50 792V112L66 54Z" class="guide"/>

  <text x="74" y="92" class="title">Future Invest Institutional Stack</text>
  <text x="74" y="122" class="subtitle">Parallel research rails, one synthesis core, two institutional exits.</text>

  <rect x="74" y="164" width="1132" height="112" rx="24" class="panel"/>
  <text x="108" y="200" class="kicker">BOOT / STAGE 01</text>
  <text x="108" y="240" class="heading">Mandate + Model Framing</text>
  <text x="108" y="268" class="body">ticker, date, runtime, urgency, capital posture</text>

  <rect x="74" y="316" width="1132" height="124" rx="24" class="panel"/>
  <text x="108" y="354" class="kicker">STACK / STAGE 02</text>
  <text x="108" y="394" class="heading">Institutional Context Before Conviction</text>
  <text x="108" y="424" class="body">portfolio role, horizon split, memory brief, stop rules</text>

  <rect x="74" y="478" width="1132" height="220" rx="24" class="panel"/>
  <text x="108" y="516" class="kicker">RAILS / STAGE 03</text>
  <text x="108" y="556" class="heading">Parallel Research Bundle</text>
  <text x="108" y="586" class="small">three neon rails feed one institutional bundle instead of roleplay serialism</text>

  <rect x="110" y="612" width="252" height="52" rx="16" class="chip"/>
  <text x="144" y="644" class="body">Business Truth</text>
  <rect x="406" y="612" width="292" height="52" rx="16" class="chip"/>
  <text x="444" y="644" class="body">Market Expectations</text>
  <rect x="742" y="612" width="352" height="52" rx="16" class="chip"/>
  <text x="790" y="644" class="body">Timing &amp; Catalysts</text>

  <rect x="74" y="738" width="536" height="116" rx="24" class="panel"/>
  <text x="108" y="776" class="kicker">CORE / STAGE 04</text>
  <text x="108" y="816" class="heading">Decision Core</text>
  <text x="108" y="844" class="body">thesis engine, challenge engine, investment director</text>

  <rect x="670" y="738" width="536" height="116" rx="24" class="panel"/>
  <text x="704" y="776" class="kicker">EXIT / STAGE 05</text>
  <text x="704" y="816" class="heading">Lean Packet Or Full Loop</text>
  <text x="704" y="844" class="body">hard packet by default, committee extension when the seat matters</text>

  <path d="M640 276V316" class="line"/>
  <path d="M640 440V478" class="line"/>
  <path d="M640 698V738" class="line"/>
  <path d="M610 796H670" class="line"/>
  <path d="M1186 794C1220 794 1232 768 1232 722C1232 644 1210 602 1148 602" class="line"/>
  <path d="M86 240C42 276 42 356 42 482C42 662 66 770 102 796" class="line"/>
  <path d="M104 146H236" class="scan"/>
  <path d="M934 146H1168" class="scan"/>
</svg>
