<svg xmlns="http://www.w3.org/2000/svg" width="1200" height="920" viewBox="0 0 1200 920" role="img" aria-labelledby="title desc">
  <title id="title">Future Invest memory loop</title>
  <desc id="desc">A cyberpunk memory loop with neon orbit rails around institutional memory and evaluation layers.</desc>
  <defs>
    <linearGradient id="mem-bg" x1="40" y1="30" x2="1160" y2="880" gradientUnits="userSpaceOnUse">
      <stop offset="0%" stop-color="#091022"/>
      <stop offset="100%" stop-color="#04060d"/>
    </linearGradient>
    <linearGradient id="mem-panel" x1="0%" y1="0%" x2="100%" y2="100%">
      <stop offset="0%" stop-color="#101835"/>
      <stop offset="100%" stop-color="#0a1022"/>
    </linearGradient>
    <linearGradient id="mem-line" x1="0%" y1="0%" x2="100%" y2="100%">
      <stop offset="0%" stop-color="#ff57c5"/>
      <stop offset="55%" stop-color="#8a5cff"/>
      <stop offset="100%" stop-color="#4ef2ff"/>
    </linearGradient>
    <filter id="mem-glow" x="-20%" y="-20%" width="140%" height="140%">
      <feGaussianBlur stdDeviation="7" result="blur"/>
      <feMerge>
        <feMergeNode in="blur"/>
        <feMergeNode in="SourceGraphic"/>
      </feMerge>
    </filter>
    <style>
      .title { font: 700 38px Arial, Helvetica, sans-serif; fill: #eef6ff; }
      .subtitle { font: 400 18px Arial, Helvetica, sans-serif; fill: #91a2d4; }
      .kicker { font: 700 14px "Courier New", monospace; fill: #4ef2ff; letter-spacing: 2.2px; }
      .heading { font: 700 24px Arial, Helvetica, sans-serif; fill: #f4f7ff; }
      .body { font: 400 17px Arial, Helvetica, sans-serif; fill: #c6d4ff; }
      .small { font: 400 15px Arial, Helvetica, sans-serif; fill: #91a2d4; }
      .card { fill: url(#mem-panel); stroke: #2a4f97; stroke-width: 2; }
      .ring { fill: none; stroke: url(#mem-line); stroke-width: 12; filter: url(#mem-glow); }
      .guide { fill: none; stroke: #1a2b57; stroke-width: 2; stroke-dasharray: 10 10; }
      .link { fill: none; stroke: url(#mem-line); stroke-width: 4; stroke-linecap: round; stroke-linejoin: round; filter: url(#mem-glow); }
    </style>
  </defs>

  <rect width="1200" height="920" fill="url(#mem-bg)"/>
  <text x="68" y="86" class="title">Memory + Evaluation Loop</text>
  <text x="68" y="118" class="subtitle">Future Invest compounds by carrying institutional residue across runs.</text>

  <circle cx="600" cy="468" r="224" class="ring"/>
  <circle cx="600" cy="468" r="292" class="guide"/>

  <rect x="426" y="350" width="348" height="236" rx="24" class="card"/>
  <text x="458" y="388" class="kicker">CORE MEMORY</text>
  <text x="458" y="430" class="heading">Institutional Context</text>
  <text x="458" y="468" class="body">company memory, thesis residue,</text>
  <text x="458" y="498" class="body">timing history, and missing evidence</text>
  <text x="458" y="542" class="small">fed back into orchestration, challenge, and sizing</text>

  <rect x="114" y="206" width="260" height="126" rx="20" class="card"/>
  <text x="146" y="246" class="heading">World Model History</text>
  <text x="146" y="282" class="small">what the institution believed</text>
  <text x="146" y="308" class="small">and when it changed</text>

  <rect x="826" y="206" width="260" height="126" rx="20" class="card"/>
  <text x="858" y="246" class="heading">Thesis History</text>
  <text x="858" y="282" class="small">how the investable case</text>
  <text x="858" y="308" class="small">shifted across runs</text>

  <rect x="114" y="624" width="260" height="126" rx="20" class="card"/>
  <text x="146" y="664" class="heading">Prediction Ledger</text>
  <text x="146" y="700" class="small">forecast records, outcomes,</text>
  <text x="146" y="726" class="small">and error analysis</text>

  <rect x="826" y="624" width="260" height="126" rx="20" class="card"/>
  <text x="858" y="664" class="heading">Reliability Map</text>
  <text x="858" y="700" class="small">which modules worked</text>
  <text x="858" y="726" class="small">in which regime</text>

  <rect x="426" y="688" width="348" height="124" rx="20" class="card"/>
  <text x="458" y="726" class="kicker">EVALUATION</text>
  <text x="458" y="768" class="heading">Compare / Audit / Refine</text>
  <text x="458" y="796" class="small">engineering quality, decision quality, outcome quality</text>

  <path d="M374 270C448 312 488 348 524 404" class="link"/>
  <path d="M826 270C752 312 712 348 676 404" class="link"/>
  <path d="M374 688C446 650 488 612 526 570" class="link"/>
  <path d="M826 688C754 650 712 612 674 570" class="link"/>
  <path d="M600 586V688" class="link"/>
</svg>
