<svg xmlns="http://www.w3.org/2000/svg" width="1600" height="980" viewBox="0 0 1600 980" role="img" aria-labelledby="title desc">
  <title id="title">Future Invest workflow</title>
  <desc id="desc">A cyberpunk workflow with framing, parallel research, decision core, lean packet, committee extension, and memory loop.</desc>
  <defs>
    <linearGradient id="wf-bg" x1="42" y1="28" x2="1550" y2="940" gradientUnits="userSpaceOnUse">
      <stop offset="0%" stop-color="#091022"/>
      <stop offset="100%" stop-color="#03050d"/>
    </linearGradient>
    <linearGradient id="wf-panel" x1="0%" y1="0%" x2="100%" y2="100%">
      <stop offset="0%" stop-color="#101835"/>
      <stop offset="100%" stop-color="#0a1022"/>
    </linearGradient>
    <linearGradient id="wf-line" x1="0%" y1="0%" x2="100%" y2="0%">
      <stop offset="0%" stop-color="#ff57c5"/>
      <stop offset="55%" stop-color="#8a5cff"/>
      <stop offset="100%" stop-color="#4ef2ff"/>
    </linearGradient>
    <filter id="wf-glow" x="-20%" y="-20%" width="140%" height="140%">
      <feGaussianBlur stdDeviation="7" result="blur"/>
      <feMerge>
        <feMergeNode in="blur"/>
        <feMergeNode in="SourceGraphic"/>
      </feMerge>
    </filter>
    <style>
      .title { font: 700 42px Arial, Helvetica, sans-serif; fill: #eef6ff; }
      .subtitle { font: 400 18px Arial, Helvetica, sans-serif; fill: #91a2d4; }
      .label { font: 700 15px "Courier New", monospace; fill: #4ef2ff; letter-spacing: 2.2px; }
      .heading { font: 700 28px Arial, Helvetica, sans-serif; fill: #f4f7ff; }
      .body { font: 400 17px Arial, Helvetica, sans-serif; fill: #c6d4ff; }
      .small { font: 400 15px Arial, Helvetica, sans-serif; fill: #91a2d4; }
      .panel { fill: url(#wf-panel); stroke: #2a4f97; stroke-width: 2; }
      .chip { fill: #0c1430; stroke: #355fc1; stroke-width: 2; }
      .line { fill: none; stroke: url(#wf-line); stroke-width: 5; stroke-linecap: round; stroke-linejoin: round; filter: url(#wf-glow); }
      .guide { fill: none; stroke: #1a2b57; stroke-width: 2; stroke-dasharray: 10 10; }
    </style>
  </defs>

  <rect width="1600" height="980" fill="#03050d"/>
  <rect x="24" y="24" width="1552" height="932" rx="34" fill="url(#wf-bg)"/>
  <path d="M70 54H1466L1534 122V840L1464 926H146L66 846V114L70 54Z" class="guide"/>

  <text x="80" y="102" class="title">Future Invest Workflow</text>
  <text x="80" y="134" class="subtitle">Parallel rails up front. One decision core. Lean first.</text>

  <rect x="84" y="186" width="296" height="164" rx="24" class="panel"/>
  <text x="116" y="224" class="label">PHASE 01</text>
  <text x="116" y="266" class="heading">Mission Setup</text>
  <text x="116" y="300" class="body">ticker, date, mandate, model stack</text>

  <rect x="432" y="186" width="364" height="164" rx="24" class="panel"/>
  <text x="464" y="224" class="label">PHASE 02</text>
  <text x="464" y="266" class="heading">Institutional Framing</text>
  <text x="464" y="300" class="body">role, horizon split, memory brief</text>

  <rect x="848" y="186" width="672" height="218" rx="24" class="panel"/>
  <text x="880" y="224" class="label">PHASE 03</text>
  <text x="880" y="266" class="heading">Parallel Research Rails</text>
  <text x="880" y="300" class="small">three passes feed one shared bundle</text>
  <rect x="892" y="330" width="164" height="48" rx="16" class="chip"/>
  <text x="920" y="361" class="body">Truth</text>
  <rect x="1080" y="330" width="214" height="48" rx="16" class="chip"/>
  <text x="1110" y="361" class="body">Expectations</text>
  <rect x="1318" y="330" width="168" height="48" rx="16" class="chip"/>
  <text x="1348" y="361" class="body">Timing</text>

  <rect x="174" y="474" width="402" height="212" rx="24" class="panel"/>
  <text x="206" y="512" class="label">PHASE 04</text>
  <text x="206" y="554" class="heading">Decision Core</text>
  <text x="206" y="590" class="body">thesis engine</text>
  <text x="206" y="622" class="body">challenge engine</text>
  <text x="206" y="654" class="body">investment director</text>

  <rect x="640" y="474" width="318" height="212" rx="24" class="panel"/>
  <text x="672" y="512" class="label">PHASE 05A</text>
  <text x="672" y="554" class="heading">Lean Packet</text>
  <text x="672" y="590" class="body">stance</text>
  <text x="672" y="622" class="body">size + entry</text>
  <text x="672" y="654" class="body">kill criteria + monitoring</text>

  <rect x="1022" y="474" width="412" height="212" rx="24" class="panel"/>
  <text x="1054" y="512" class="label">PHASE 05B</text>
  <text x="1054" y="554" class="heading">Committee Extension</text>
  <text x="1054" y="590" class="body">execution engine</text>
  <text x="1054" y="622" class="body">allocation review stack</text>
  <text x="1054" y="654" class="body">capital committee</text>

  <rect x="404" y="760" width="390" height="132" rx="24" class="panel"/>
  <text x="436" y="798" class="label">PHASE 06</text>
  <text x="436" y="840" class="heading">Final Decision</text>
  <text x="436" y="870" class="small">rating, role, entry, kill criteria</text>

  <rect x="848" y="742" width="560" height="150" rx="24" class="panel"/>
  <text x="880" y="780" class="label">LEARNING LOOP</text>
  <text x="880" y="822" class="heading">Memory + Eval + Trace</text>
  <text x="880" y="854" class="small">residue, prediction ledgers, iteration</text>

  <path d="M380 268H432" class="line"/>
  <path d="M796 268H848" class="line"/>
  <path d="M1184 404V474" class="line"/>
  <path d="M576 580H640" class="line"/>
  <path d="M958 580H1022" class="line"/>
  <path d="M798 686V760" class="line"/>
  <path d="M794 826H848" class="line"/>
  <path d="M1128 742C1104 704 1048 672 1002 648" class="line"/>
</svg>
