<svg xmlns="http://www.w3.org/2000/svg" width="1600" height="860" viewBox="0 0 1600 860" role="img" aria-labelledby="title desc">
  <title id="title">Future Invest full loop</title>
  <desc id="desc">A cyberpunk diagram of the full loop extension beyond the lean packet.</desc>
  <defs>
    <linearGradient id="fl-bg" x1="36" y1="30" x2="1560" y2="830" gradientUnits="userSpaceOnUse">
      <stop offset="0%" stop-color="#091022"/>
      <stop offset="100%" stop-color="#03050d"/>
    </linearGradient>
    <linearGradient id="fl-panel" x1="0%" y1="0%" x2="100%" y2="100%">
      <stop offset="0%" stop-color="#101835"/>
      <stop offset="100%" stop-color="#0a1022"/>
    </linearGradient>
    <linearGradient id="fl-line" x1="0%" y1="0%" x2="100%" y2="0%">
      <stop offset="0%" stop-color="#ff57c5"/>
      <stop offset="55%" stop-color="#8a5cff"/>
      <stop offset="100%" stop-color="#4ef2ff"/>
    </linearGradient>
    <style>
      .title { font: 700 40px Arial, Helvetica, sans-serif; fill: #eef6ff; }
      .subtitle { font: 400 18px Arial, Helvetica, sans-serif; fill: #91a2d4; }
      .label { font: 700 15px "Courier New", monospace; fill: #4ef2ff; letter-spacing: 2.2px; }
      .heading { font: 700 28px Arial, Helvetica, sans-serif; fill: #f4f7ff; }
      .body { font: 400 18px Arial, Helvetica, sans-serif; fill: #c6d4ff; }
      .panel { fill: url(#fl-panel); stroke: #2a4f97; stroke-width: 2; }
      .line { fill: none; stroke: url(#fl-line); stroke-width: 5; stroke-linecap: round; stroke-linejoin: round; }
    </style>
  </defs>
  <rect width="1600" height="860" fill="url(#fl-bg)"/>
  <text x="78" y="98" class="title">Full Loop Extension</text>
  <text x="78" y="130" class="subtitle">Deeper governance only when capital at risk deserves it.</text>
  <rect x="96" y="262" width="278" height="214" rx="24" class="panel"/>
  <text x="128" y="300" class="label">INPUT</text>
  <text x="128" y="342" class="heading">Research Bundle</text>
  <text x="128" y="378" class="body">truth / expectations / timing</text>
  <rect x="428" y="262" width="278" height="214" rx="24" class="panel"/>
  <text x="460" y="300" class="label">DIRECTOR</text>
  <text x="460" y="342" class="heading">Institutional View</text>
  <text x="460" y="378" class="body">world model / role / urgency</text>
  <rect x="760" y="220" width="300" height="298" rx="24" class="panel"/>
  <text x="792" y="258" class="label">EXECUTION</text>
  <text x="792" y="300" class="heading">Execution Engine</text>
  <text x="792" y="338" class="body">entry structure / liquidity / monitoring</text>
  <rect x="1114" y="220" width="386" height="298" rx="24" class="panel"/>
  <text x="1146" y="258" class="label">GOVERNANCE</text>
  <text x="1146" y="300" class="heading">Allocation Review Stack</text>
  <text x="1146" y="338" class="body">upside capture / downside guardrail / fit</text>
  <rect x="484" y="606" width="634" height="148" rx="24" class="panel"/>
  <text x="516" y="644" class="label">FINAL RESULT</text>
  <text x="516" y="686" class="heading">Capital Committee Decision</text>
  <text x="516" y="718" class="body">rating, size, entry path, kill criteria, rationale</text>
  <path d="M374 370H428" class="line"/>
  <path d="M706 370H760" class="line"/>
  <path d="M1060 370H1114" class="line"/>
  <path d="M1258 518C1236 560 1172 586 1118 606" class="line"/>
  <path d="M910 518V606" class="line"/>
</svg>
