<svg xmlns="http://www.w3.org/2000/svg" width="1600" height="760" viewBox="0 0 1600 760" fill="none">
  <defs>
    <linearGradient id="bg" x1="90" y1="80" x2="1510" y2="680" gradientUnits="userSpaceOnUse">
      <stop stop-color="#060816"/>
      <stop offset="1" stop-color="#0C1530"/>
    </linearGradient>
    <linearGradient id="panel" x1="0" y1="0" x2="1" y2="1">
      <stop stop-color="#0F1C3F" stop-opacity="0.95"/>
      <stop offset="1" stop-color="#081021" stop-opacity="0.98"/>
    </linearGradient>
    <linearGradient id="edge" x1="0" y1="0" x2="1" y2="0">
      <stop stop-color="#67F0FF"/>
      <stop offset="1" stop-color="#FF57C5"/>
    </linearGradient>
    <filter id="glow" x="-20%" y="-20%" width="140%" height="140%">
      <feGaussianBlur stdDeviation="6" result="blur"/>
      <feMerge>
        <feMergeNode in="blur"/>
        <feMergeNode in="SourceGraphic"/>
      </feMerge>
    </filter>
  </defs>

  <rect width="1600" height="760" rx="28" fill="url(#bg)"/>
  <g opacity="0.2">
    <path d="M80 128H1520" stroke="#203056" stroke-width="1"/>
    <path d="M80 380H1520" stroke="#203056" stroke-width="1"/>
    <path d="M80 632H1520" stroke="#203056" stroke-width="1"/>
    <path d="M260 70V690" stroke="#203056" stroke-width="1"/>
    <path d="M620 70V690" stroke="#203056" stroke-width="1"/>
    <path d="M980 70V690" stroke="#203056" stroke-width="1"/>
    <path d="M1340 70V690" stroke="#203056" stroke-width="1"/>
  </g>

  <text x="96" y="96" fill="#67F0FF" font-size="16" font-family="'SFMono-Regular', Consolas, 'Liberation Mono', Menlo, monospace" letter-spacing="3.2">FUTURE INVEST / SIMPLE WORKFLOW</text>
  <text x="96" y="138" fill="#F5F7FF" font-size="40" font-family="Arial, Helvetica, sans-serif" font-weight="700">One lean investment loop. One optional committee branch.</text>
  <text x="96" y="173" fill="#A7B7D6" font-size="20" font-family="Arial, Helvetica, sans-serif">Replace five busy diagrams with one readable map of how research becomes an investable position.</text>

  <g>
    <rect x="92" y="250" width="248" height="170" rx="22" fill="url(#panel)" stroke="#203A6A" stroke-width="2"/>
    <rect x="92" y="250" width="248" height="12" rx="6" fill="#67F0FF" opacity="0.85"/>
    <text x="120" y="292" fill="#67F0FF" font-size="14" font-family="'SFMono-Regular', Consolas, monospace" letter-spacing="2.4">STEP 01</text>
    <text x="120" y="330" fill="#F5F7FF" font-size="28" font-family="Arial, Helvetica, sans-serif" font-weight="700">Mandate</text>
    <text x="120" y="360" fill="#F5F7FF" font-size="28" font-family="Arial, Helvetica, sans-serif" font-weight="700">&amp; Context</text>
    <text x="120" y="395" fill="#A7B7D6" font-size="18" font-family="Arial, Helvetica, sans-serif">Portfolio role</text>
    <text x="120" y="420" fill="#A7B7D6" font-size="18" font-family="Arial, Helvetica, sans-serif">Capital and risk budget</text>
  </g>

  <g>
    <rect x="388" y="220" width="330" height="230" rx="22" fill="url(#panel)" stroke="#2C4B86" stroke-width="2"/>
    <rect x="388" y="220" width="330" height="12" rx="6" fill="#67F0FF" opacity="0.85"/>
    <text x="416" y="262" fill="#67F0FF" font-size="14" font-family="'SFMono-Regular', Consolas, monospace" letter-spacing="2.4">STEP 02</text>
    <text x="416" y="302" fill="#F5F7FF" font-size="30" font-family="Arial, Helvetica, sans-serif" font-weight="700">Parallel Research</text>
    <rect x="416" y="328" width="274" height="34" rx="17" fill="#0D1730" stroke="#1F335F"/>
    <text x="438" y="351" fill="#F5F7FF" font-size="17" font-family="Arial, Helvetica, sans-serif">Business Truth</text>
    <rect x="416" y="374" width="274" height="34" rx="17" fill="#0D1730" stroke="#1F335F"/>
    <text x="438" y="397" fill="#F5F7FF" font-size="17" font-family="Arial, Helvetica, sans-serif">Market Expectations</text>
    <rect x="416" y="420" width="274" height="34" rx="17" fill="#0D1730" stroke="#1F335F"/>
    <text x="438" y="443" fill="#F5F7FF" font-size="17" font-family="Arial, Helvetica, sans-serif">Timing &amp; Catalysts</text>
  </g>

  <g>
    <rect x="766" y="250" width="248" height="170" rx="22" fill="url(#panel)" stroke="#203A6A" stroke-width="2"/>
    <rect x="766" y="250" width="248" height="12" rx="6" fill="#67F0FF" opacity="0.85"/>
    <text x="794" y="292" fill="#67F0FF" font-size="14" font-family="'SFMono-Regular', Consolas, monospace" letter-spacing="2.4">STEP 03</text>
    <text x="794" y="330" fill="#F5F7FF" font-size="28" font-family="Arial, Helvetica, sans-serif" font-weight="700">Thesis</text>
    <text x="794" y="360" fill="#F5F7FF" font-size="28" font-family="Arial, Helvetica, sans-serif" font-weight="700">vs Challenge</text>
    <text x="794" y="397" fill="#A7B7D6" font-size="18" font-family="Arial, Helvetica, sans-serif">Bull case and counterevidence</text>
    <text x="794" y="422" fill="#A7B7D6" font-size="18" font-family="Arial, Helvetica, sans-serif">forced into one view</text>
  </g>

  <g>
    <rect x="1062" y="220" width="330" height="230" rx="22" fill="url(#panel)" stroke="#2C4B86" stroke-width="2"/>
    <rect x="1062" y="220" width="330" height="12" rx="6" fill="#FF57C5" opacity="0.9"/>
    <text x="1090" y="262" fill="#FF57C5" font-size="14" font-family="'SFMono-Regular', Consolas, monospace" letter-spacing="2.4">STEP 04 / LEAN DEFAULT</text>
    <text x="1090" y="302" fill="#F5F7FF" font-size="30" font-family="Arial, Helvetica, sans-serif" font-weight="700">Position Packet</text>
    <text x="1090" y="340" fill="#A7B7D6" font-size="18" font-family="Arial, Helvetica, sans-serif">Stance, size, entry, kill criteria,</text>
    <text x="1090" y="365" fill="#A7B7D6" font-size="18" font-family="Arial, Helvetica, sans-serif">monitoring, missing evidence.</text>
    <rect x="1090" y="392" width="104" height="32" rx="16" fill="#231030" stroke="#6A2A6F"/>
    <text x="1115" y="413" fill="#FF8BDA" font-size="15" font-family="'SFMono-Regular', Consolas, monospace">LEAN</text>
  </g>

  <g>
    <rect x="1258" y="506" width="238" height="146" rx="22" fill="url(#panel)" stroke="#203A6A" stroke-width="2"/>
    <rect x="1258" y="506" width="238" height="12" rx="6" fill="#67F0FF" opacity="0.85"/>
    <text x="1286" y="548" fill="#67F0FF" font-size="14" font-family="'SFMono-Regular', Consolas, monospace" letter-spacing="2.4">STEP 05</text>
    <text x="1286" y="586" fill="#F5F7FF" font-size="28" font-family="Arial, Helvetica, sans-serif" font-weight="700">Memory</text>
    <text x="1286" y="616" fill="#F5F7FF" font-size="28" font-family="Arial, Helvetica, sans-serif" font-weight="700">&amp; Evaluation</text>
    <text x="1286" y="641" fill="#A7B7D6" font-size="18" font-family="Arial, Helvetica, sans-serif">Trace, outcome, next run</text>
  </g>

  <g>
    <rect x="1018" y="526" width="194" height="106" rx="22" fill="#120B24" stroke="#6A2A6F" stroke-width="2"/>
    <text x="1044" y="560" fill="#FF57C5" font-size="14" font-family="'SFMono-Regular', Consolas, monospace" letter-spacing="2.2">FULL OPTIONAL</text>
    <text x="1044" y="595" fill="#F5F7FF" font-size="24" font-family="Arial, Helvetica, sans-serif" font-weight="700">Committee</text>
    <text x="1044" y="621" fill="#A7B7D6" font-size="17" font-family="Arial, Helvetica, sans-serif">Deeper execution and sizing</text>
  </g>

  <g stroke="url(#edge)" stroke-width="6" stroke-linecap="round" stroke-linejoin="round" filter="url(#glow)">
    <path d="M340 335H388"/>
    <path d="M718 335H766"/>
    <path d="M1014 335H1062"/>
    <path d="M1392 450V480H1377V506"/>
  </g>

  <g stroke="#FF57C5" stroke-width="4" stroke-linecap="round" stroke-linejoin="round" filter="url(#glow)">
    <path d="M1227 450V488H1115V526"/>
  </g>

  <g fill="#67F0FF">
    <circle cx="388" cy="335" r="6"/>
    <circle cx="766" cy="335" r="6"/>
    <circle cx="1062" cy="335" r="6"/>
    <circle cx="1377" cy="506" r="6"/>
  </g>
  <g fill="#FF57C5">
    <circle cx="1115" cy="526" r="6"/>
  </g>

  <text x="1046" y="500" fill="#FF8BDA" font-size="15" font-family="'SFMono-Regular', Consolas, monospace" letter-spacing="1.4">expand only when the seat justifies it</text>
</svg>
