<svg xmlns="http://www.w3.org/2000/svg" width="1600" height="860" viewBox="0 0 1600 860" role="img" aria-labelledby="title desc">
  <title id="title">Future Invest decision core</title>
  <desc id="desc">A cyberpunk diagram of thesis, challenge, director, and the final packet.</desc>
  <defs>
    <linearGradient id="dc-bg" x1="36" y1="30" x2="1560" y2="830" gradientUnits="userSpaceOnUse">
      <stop offset="0%" stop-color="#091022"/>
      <stop offset="100%" stop-color="#03050d"/>
    </linearGradient>
    <linearGradient id="dc-panel" x1="0%" y1="0%" x2="100%" y2="100%">
      <stop offset="0%" stop-color="#101835"/>
      <stop offset="100%" stop-color="#0a1022"/>
    </linearGradient>
    <linearGradient id="dc-line" x1="0%" y1="0%" x2="100%" y2="0%">
      <stop offset="0%" stop-color="#ff57c5"/>
      <stop offset="55%" stop-color="#8a5cff"/>
      <stop offset="100%" stop-color="#4ef2ff"/>
    </linearGradient>
    <style>
      .title { font: 700 40px Arial, Helvetica, sans-serif; fill: #eef6ff; }
      .subtitle { font: 400 18px Arial, Helvetica, sans-serif; fill: #91a2d4; }
      .label { font: 700 15px "Courier New", monospace; fill: #4ef2ff; letter-spacing: 2.2px; }
      .heading { font: 700 28px Arial, Helvetica, sans-serif; fill: #f4f7ff; }
      .body { font: 400 18px Arial, Helvetica, sans-serif; fill: #c6d4ff; }
      .panel { fill: url(#dc-panel); stroke: #2a4f97; stroke-width: 2; }
      .line { fill: none; stroke: url(#dc-line); stroke-width: 5; stroke-linecap: round; stroke-linejoin: round; }
    </style>
  </defs>
  <rect width="1600" height="860" fill="url(#dc-bg)"/>
  <text x="78" y="98" class="title">Decision Core</text>
  <text x="78" y="130" class="subtitle">Debate, compression, and packetization.</text>
  <rect x="122" y="250" width="338" height="236" rx="24" class="panel"/>
  <text x="154" y="288" class="label">ENGINE A</text>
  <text x="154" y="330" class="heading">Thesis Engine</text>
  <text x="154" y="368" class="body">strongest investable upside case</text>
  <rect x="502" y="250" width="338" height="236" rx="24" class="panel"/>
  <text x="534" y="288" class="label">ENGINE B</text>
  <text x="534" y="330" class="heading">Challenge Engine</text>
  <text x="534" y="368" class="body">counterevidence and failure modes</text>
  <rect x="918" y="214" width="302" height="308" rx="24" class="panel"/>
  <text x="950" y="252" class="label">SYNTHESIS</text>
  <text x="950" y="294" class="heading">Investment Director</text>
  <text x="950" y="334" class="body">world model / role / next step</text>
  <rect x="1276" y="176" width="224" height="384" rx="24" class="panel"/>
  <text x="1308" y="214" class="label">LEAN OUTPUT</text>
  <text x="1308" y="256" class="heading">Position Packet</text>
  <text x="1308" y="312" class="body">stance</text>
  <text x="1308" y="344" class="body">size</text>
  <text x="1308" y="376" class="body">entry framework</text>
  <text x="1308" y="408" class="body">kill criteria</text>
  <text x="1308" y="440" class="body">monitoring triggers</text>
  <rect x="390" y="606" width="834" height="146" rx="24" class="panel"/>
  <text x="422" y="644" class="label">WHY IT STICKS</text>
  <text x="422" y="686" class="heading">The run ends in a packet, not a memo.</text>
  <text x="422" y="718" class="body">That is what makes the loop actionable, falsifiable, and portfolio-aware.</text>
  <path d="M460 368H502" class="line"/>
  <path d="M840 368H918" class="line"/>
  <path d="M1220 368H1276" class="line"/>
  <path d="M1068 522V606" class="line"/>
</svg>
