<svg xmlns="http://www.w3.org/2000/svg" width="1600" height="860" viewBox="0 0 1600 860" role="img" aria-labelledby="title desc">
  <title id="title">Future Invest research stack</title>
  <desc id="desc">A cyberpunk diagram of the three research capabilities converging into one institutional bundle.</desc>
  <defs>
    <linearGradient id="rs-bg" x1="36" y1="30" x2="1560" y2="830" gradientUnits="userSpaceOnUse">
      <stop offset="0%" stop-color="#091022"/>
      <stop offset="100%" stop-color="#03050d"/>
    </linearGradient>
    <linearGradient id="rs-panel" x1="0%" y1="0%" x2="100%" y2="100%">
      <stop offset="0%" stop-color="#101835"/>
      <stop offset="100%" stop-color="#0a1022"/>
    </linearGradient>
    <linearGradient id="rs-line" x1="0%" y1="0%" x2="100%" y2="0%">
      <stop offset="0%" stop-color="#ff57c5"/>
      <stop offset="55%" stop-color="#8a5cff"/>
      <stop offset="100%" stop-color="#4ef2ff"/>
    </linearGradient>
    <style>
      .title { font: 700 40px Arial, Helvetica, sans-serif; fill: #eef6ff; }
      .subtitle { font: 400 18px Arial, Helvetica, sans-serif; fill: #91a2d4; }
      .label { font: 700 15px "Courier New", monospace; fill: #4ef2ff; letter-spacing: 2.2px; }
      .heading { font: 700 28px Arial, Helvetica, sans-serif; fill: #f4f7ff; }
      .body { font: 400 18px Arial, Helvetica, sans-serif; fill: #c6d4ff; }
      .small { font: 400 15px Arial, Helvetica, sans-serif; fill: #91a2d4; }
      .panel { fill: url(#rs-panel); stroke: #2a4f97; stroke-width: 2; }
      .line { fill: none; stroke: url(#rs-line); stroke-width: 5; stroke-linecap: round; stroke-linejoin: round; }
    </style>
  </defs>
  <rect width="1600" height="860" fill="url(#rs-bg)"/>
  <text x="78" y="98" class="title">Research Capability Stack</text>
  <text x="78" y="130" class="subtitle">Three specialized rails converge into one institutional bundle.</text>
  <rect x="92" y="198" width="420" height="308" rx="24" class="panel"/>
  <text x="124" y="236" class="label">RAIL 01</text>
  <text x="124" y="278" class="heading">Business Truth</text>
  <text x="124" y="320" class="body">what is economically real</text>
  <text x="124" y="356" class="small">earnings power / resilience / assumptions</text>
  <rect x="590" y="198" width="420" height="308" rx="24" class="panel"/>
  <text x="622" y="236" class="label">RAIL 02</text>
  <text x="622" y="278" class="heading">Market Expectations</text>
  <text x="622" y="320" class="body">what the tape already expects</text>
  <text x="622" y="356" class="small">positioning / momentum / implied consensus</text>
  <rect x="1088" y="198" width="420" height="308" rx="24" class="panel"/>
  <text x="1120" y="236" class="label">RAIL 03</text>
  <text x="1120" y="278" class="heading">Timing &amp; Catalysts</text>
  <text x="1120" y="320" class="body">what makes the window actionable</text>
  <text x="1120" y="356" class="small">attention / catalysts / invalidation</text>
  <rect x="420" y="608" width="760" height="148" rx="24" class="panel"/>
  <text x="452" y="646" class="label">CONVERGENCE</text>
  <text x="452" y="688" class="heading">Shared Institutional Bundle</text>
  <text x="452" y="720" class="body">one object for thesis, challenge, and director logic</text>
  <path d="M302 506C302 566 430 586 548 608" class="line"/>
  <path d="M800 506V608" class="line"/>
  <path d="M1298 506C1298 566 1170 586 1052 608" class="line"/>
</svg>
