<svg xmlns="http://www.w3.org/2000/svg" width="1600" height="980" viewBox="0 0 1600 980" role="img" aria-labelledby="title desc">
  <title id="title">Future Invest workflow</title>
  <desc id="desc">A custom workflow showing framing, parallel research, decision core, lean packet, committee extension, and memory loop.</desc>
  <defs>
    <linearGradient id="wf-bg" x1="40" y1="30" x2="1560" y2="946" gradientUnits="userSpaceOnUse">
      <stop offset="0%" stop-color="#171e23"/>
      <stop offset="100%" stop-color="#0c0f11"/>
    </linearGradient>
    <linearGradient id="wf-panel" x1="0%" y1="0%" x2="100%" y2="100%">
      <stop offset="0%" stop-color="#262f35"/>
      <stop offset="100%" stop-color="#171d21"/>
    </linearGradient>
    <linearGradient id="wf-line" x1="0%" y1="0%" x2="100%" y2="0%">
      <stop offset="0%" stop-color="#f0aa6b"/>
      <stop offset="55%" stop-color="#d8c07b"/>
      <stop offset="100%" stop-color="#87c7b0"/>
    </linearGradient>
    <style>
      .title { font: 700 42px Georgia, "Times New Roman", serif; fill: #f5efe5; }
      .subtitle { font: 400 18px Arial, Helvetica, sans-serif; fill: #b7aa96; }
      .label { font: 700 15px Arial, Helvetica, sans-serif; fill: #f0aa6b; letter-spacing: 1.8px; }
      .heading { font: 700 28px Georgia, "Times New Roman", serif; fill: #f5efe5; }
      .body { font: 400 17px Arial, Helvetica, sans-serif; fill: #e8dccb; }
      .small { font: 400 15px Arial, Helvetica, sans-serif; fill: #b7aa96; }
      .panel { fill: url(#wf-panel); stroke: #4d4030; stroke-width: 2; }
      .chip { fill: #20272c; stroke: #5b4a35; stroke-width: 2; }
      .line { fill: none; stroke: url(#wf-line); stroke-width: 5; stroke-linecap: round; stroke-linejoin: round; }
      .guide { fill: none; stroke: #3a3128; stroke-width: 2; stroke-dasharray: 10 10; }
    </style>
  </defs>

  <rect width="1600" height="980" fill="#0b0e10"/>
  <rect x="26" y="26" width="1548" height="928" rx="34" fill="url(#wf-bg)"/>
  <rect x="50" y="50" width="1500" height="880" rx="28" class="guide"/>

  <text x="80" y="102" class="title">Future Invest Workflow</text>
  <text x="80" y="134" class="subtitle">One original workflow surface: framing first, parallel research second, lean packet by default.</text>

  <rect x="82" y="186" width="300" height="170" rx="28" class="panel"/>
  <text x="116" y="226" class="label">PHASE 1</text>
  <text x="116" y="270" class="heading">Mission Setup</text>
  <text x="116" y="306" class="body">ticker, date, model stack, urgency</text>

  <rect x="440" y="186" width="356" height="170" rx="28" class="panel"/>
  <text x="474" y="226" class="label">PHASE 2</text>
  <text x="474" y="270" class="heading">Institutional Framing</text>
  <text x="474" y="306" class="body">mandate, time horizon, memory brief</text>
  <text x="474" y="334" class="small">constraint-aware before the thesis hardens</text>

  <rect x="854" y="186" width="664" height="220" rx="28" class="panel"/>
  <text x="888" y="226" class="label">PHASE 3</text>
  <text x="888" y="270" class="heading">Parallel Research Engines</text>
  <text x="888" y="306" class="small">three capability-native passes converge into one shared bundle</text>

  <rect x="894" y="332" width="168" height="48" rx="18" class="chip"/>
  <text x="924" y="363" class="body">Business Truth</text>
  <rect x="1086" y="332" width="210" height="48" rx="18" class="chip"/>
  <text x="1116" y="363" class="body">Market Expectations</text>
  <rect x="1320" y="332" width="162" height="48" rx="18" class="chip"/>
  <text x="1350" y="363" class="body">Timing</text>

  <rect x="170" y="484" width="420" height="214" rx="28" class="panel"/>
  <text x="204" y="524" class="label">PHASE 4</text>
  <text x="204" y="568" class="heading">Decision Core</text>
  <text x="204" y="604" class="body">thesis engine + challenge engine</text>
  <text x="204" y="632" class="body">+ investment director</text>
  <text x="204" y="668" class="small">variant perception, world model, missing evidence</text>

  <rect x="652" y="484" width="332" height="214" rx="28" class="panel"/>
  <text x="686" y="524" class="label">PHASE 5A</text>
  <text x="686" y="568" class="heading">Lean Packet</text>
  <text x="686" y="604" class="body">stance</text>
  <text x="686" y="634" class="body">size + entry framework</text>
  <text x="686" y="664" class="body">kill criteria + monitoring</text>

  <rect x="1048" y="484" width="404" height="214" rx="28" class="panel"/>
  <text x="1082" y="524" class="label">PHASE 5B</text>
  <text x="1082" y="568" class="heading">Full Committee Extension</text>
  <text x="1082" y="604" class="body">execution, fit, allocation review</text>
  <text x="1082" y="632" class="small">used when capital at risk justifies deeper governance</text>

  <rect x="396" y="772" width="402" height="122" rx="28" class="panel"/>
  <text x="430" y="812" class="label">PHASE 6</text>
  <text x="430" y="856" class="heading">Final Institutional Decision</text>
  <text x="430" y="884" class="small">rating, mandate role, entry/exit discipline</text>

  <rect x="852" y="752" width="566" height="142" rx="28" class="panel"/>
  <text x="886" y="792" class="label">LEARNING LOOP</text>
  <text x="886" y="836" class="heading">Memory + Evaluation</text>
  <text x="886" y="868" class="small">traces, world model history, prediction ledgers, workflow iteration</text>

  <path d="M382 270H440" class="line"/>
  <path d="M796 270H854" class="line"/>
  <path d="M1186 406V484" class="line"/>
  <path d="M590 590H652" class="line"/>
  <path d="M984 590H1048" class="line"/>
  <path d="M818 590H1048" class="guide"/>
  <path d="M818 698V772" class="line"/>
  <path d="M798 834H852" class="line"/>
  <path d="M1134 752C1082 714 1038 682 986 646" class="line"/>
  <path d="M852 834C304 916 182 842 182 664C182 520 236 428 440 334" class="line"/>
</svg>
